<?xml version="1.0"?>
<svg xmlns="http://www.w3.org/2000/svg" xmlns:xlink="http://www.w3.org/1999/xlink" xmlns:svgjs="http://svgjs.com/svgjs" version="1.1" width="512" height="512" x="0" y="0" viewBox="0 0 512 512" style="enable-background:new 0 0 512 512" xml:space="preserve" class=""><g transform="matrix(0.49,0,0,0.49,130.5599922180176,130.5600038909912)"><g xmlns="http://www.w3.org/2000/svg"><g><g clip-rule="evenodd" fill-rule="evenodd"><path d="m52.5 183.568h143.501v-79.973l-5.465-13.945h-132.571l-5.465 13.945z" fill="#e5ecf5" data-original="#e5ecf5" style=""/><path d="m22.5 228.568h203.5c8.249 0 15-6.751 15-15v-15c0-8.249-6.75-15-15-15h-203.5c-8.25 0-15 6.75-15 15v15c0 8.25 6.751 15 15 15z" fill="#e5ecf5" data-original="#e5ecf5" style=""/><path d="m37.5 452.35h173.501l15-223.782h-203.501zm-15-268.782h30v-79.973l5.465-13.945h132.571l5.465 13.945v79.973h30v-85.642l-15-38.276h-173.501l-15 38.276z" fill="#7bdaa9" data-original="#7bdaa9" style="" class=""/><path d="m22.5 183.568h15v-85.642l15-38.276h-15l-15 38.276zm15 268.782h22.5l-15-223.782h-22.5zm153.036-362.7 5.465 13.945v79.973h15v-79.973l-5.465-13.945z" fill="#52cd8d" data-original="#52cd8d" style="" class=""/><path d="m52.5 183.568h22.5v-79.973l5.464-13.945h-22.499l-5.465 13.945z" fill="#cad8eb" data-original="#cad8eb" style="" class=""/><path d="m22.5 228.568h22.5c-8.249 0-15-6.75-15-15v-15c0-8.25 6.75-15 15-15h-22.5c-8.25 0-15 6.75-15 15v15c0 8.25 6.751 15 15 15z" fill="#cad8eb" data-original="#cad8eb" style="" class=""/><path d="m316 183.568h143.5v-79.973l-5.465-13.945h-132.571l-5.464 13.945z" fill="#e5ecf5" data-original="#e5ecf5" style=""/><path d="m286 228.568h203.5c8.249 0 15-6.751 15-15v-15c0-8.249-6.75-15-15-15h-203.5c-8.25 0-15 6.75-15 15v15c0 8.25 6.751 15 15 15z" fill="#e5ecf5" data-original="#e5ecf5" style=""/><path d="m300.999 452.35h173.501l15-223.782h-203.5zm-14.999-268.782h30v-79.973l5.465-13.945h132.571l5.465 13.945v79.973h30v-85.642l-15-38.276h-173.502l-15 38.276v85.642z" fill="#faef93" data-original="#faef93" style="" class=""/><path d="m286 183.568h15v-85.642l15-38.276h-15l-15 38.276zm14.999 268.782h22.5l-15-223.782h-22.499zm153.036-362.7 5.465 13.945v79.973h15v-79.973l-5.465-13.945z" fill="#f8e868" data-original="#f8e868" style=""/><path d="m316 183.568h22.499v-79.973l5.465-13.945h-22.5l-5.464 13.945z" fill="#cad8eb" data-original="#cad8eb" style="" class=""/><path d="m286 228.568h22.5c-8.249 0-15-6.75-15-15v-15c0-8.25 6.75-15 15-15h-22.5c-8.25 0-15 6.75-15 15v15c0 8.25 6.751 15 15 15z" fill="#cad8eb" data-original="#cad8eb" style="" class=""/><path d="m361.347 321.709h52.806v67.5h-52.806z" fill="#e5ecf5" data-original="#e5ecf5" style=""/><path d="m361.347 321.709h15v67.5h-15z" fill="#cad8eb" data-original="#cad8eb" style="" class=""/></g><g><path d="m368.5 429.851h-15v-15h15zm-30.001 0h-15v-15h15zm-233.499 0h-15v-15h15zm-30 0h-15v-15h15zm384.5-163.784h-15v-15h15zm-30 0h-45v-15h45zm-233.5 0h-15v-15h15zm-30 0h-45v-15h45zm187.499-104.999h-15v-15h15zm-263.499 0h-15v-15h15zm349.036-33.919h-15v-15h15zm-263.5 0h-15v-15h15z" fill="#ffffff" data-original="#ffffff" style=""/></g></g><g><path d="m133.221 328.456 38.95 5.377 5.377-38.95-14.859-2.051-1.551 11.232c-9.703-10.018-23.244-16.036-37.756-16.036-23.132 0-43.844 15.484-50.369 37.654l14.39 4.234c4.66-15.832 19.455-26.889 35.979-26.889 11.014 0 21.245 4.852 28.236 12.825l-16.345-2.257z" fill="#000000" data-original="#000000" style=""/><path d="m161.273 350.387c-4.465 16.193-19.333 27.503-36.155 27.503-11.014 0-21.245-4.852-28.236-12.825l16.346 2.257 2.051-14.859-38.951-5.377-5.377 38.951 14.859 2.051 1.551-11.233c9.703 10.017 23.245 16.036 37.757 16.036 23.548 0 44.362-15.839 50.615-38.517z" fill="#000000" data-original="#000000" style=""/><path d="m33.5 280.539-14.966 1.004 11.952 178.308h128.015v-15h-113.987z" fill="#000000" data-original="#000000" style=""/><path d="m297 280.547-14.965 1.004 11.95 178.3h128.016v-15h-113.987z" fill="#000000" data-original="#000000" style=""/><path d="m489.5 176.067h-203.5c-12.406 0-22.5 10.094-22.5 22.5v15.001c0 9.929 6.467 18.37 15.409 21.348l2.123 31.668 14.966-1.004-1.978-29.513h86.231v-15h-94.251c-4.135 0-7.5-3.364-7.5-7.5v-15.001c0-4.136 3.364-7.5 7.5-7.5h203.5c4.136 0 7.5 3.364 7.5 7.5v15.001c0 4.136-3.364 7.5-7.5 7.5h-94.25v15h86.231l-13.995 208.782h-30.486v15h44.514l15.077-224.934c8.941-2.978 15.409-11.42 15.409-21.348v-15.001c0-12.405-10.094-22.499-22.5-22.499z" fill="#000000" data-original="#000000" style=""/><path d="m226 176.067h-203.5c-12.406 0-22.5 10.094-22.5 22.5v15.001c0 9.929 6.468 18.371 15.409 21.348l2.122 31.662 14.966-1.004-1.978-29.507h86.231v-15h-94.25c-4.136 0-7.5-3.364-7.5-7.5v-15.001c0-4.136 3.364-7.5 7.5-7.5h203.5c4.135 0 7.5 3.364 7.5 7.5v15.001c0 4.136-3.364 7.5-7.5 7.5h-94.25v15h86.231l-13.995 208.782h-30.485v15h44.514l15.077-224.934c8.941-2.978 15.409-11.42 15.409-21.348v-15.001c-.001-12.405-10.094-22.499-22.501-22.499z" fill="#000000" data-original="#000000" style=""/><path d="m293.5 99.343 12.616-32.194h74.134v-15h-84.367l-17.383 44.36v64.559h15z" fill="#000000" data-original="#000000" style=""/><path d="m218.5 99.343v61.725h15v-64.559l-17.383-44.36h-84.367v15h74.134z" fill="#000000" data-original="#000000" style=""/><path d="m30 99.343 12.616-32.194h74.134v-15h-84.366l-17.384 44.36v64.559h15z" fill="#000000" data-original="#000000" style=""/><path d="m482 99.343v61.725h15v-64.559l-17.384-44.36h-84.366v15h74.134z" fill="#000000" data-original="#000000" style=""/><path d="m203.5 161.068v-58.89l-7.848-20.029h-142.803l-7.849 20.029v58.89h15v-56.056l3.081-7.863h122.338l3.081 7.863v56.056z" fill="#000000" data-original="#000000" style=""/><path d="m467 161.068v-58.89l-7.849-20.029h-142.803l-7.848 20.029v58.89h15v-56.056l3.08-7.863h122.339l3.081 7.863v56.056z" fill="#000000" data-original="#000000" style=""/><path d="m353.847 396.709h67.807v-82.5h-67.807zm15-67.5h37.807v52.5h-37.807z" fill="#000000" data-original="#000000" style=""/><path d="m370.798 284.209h33.903v15h-33.903z" fill="#000000" data-original="#000000" style=""/></g></g></g></svg>
