<?xml version="1.0"?>
<svg xmlns="http://www.w3.org/2000/svg" xmlns:xlink="http://www.w3.org/1999/xlink" xmlns:svgjs="http://svgjs.com/svgjs" version="1.1" width="512" height="512" x="0" y="0" viewBox="0 0 64 64" style="enable-background:new 0 0 512 512" xml:space="preserve"><g transform="matrix(0.5,0,0,0.5,16,16.00000047683716)"><g xmlns="http://www.w3.org/2000/svg"><g><g><path d="m1 56h62v6.006h-62z" fill="#aab2bd" data-original="#aab2bd" style=""/></g><g><path d="m13 20v12 4h14v20h6v-24-10-2z" fill="#ccd1d9" data-original="#ccd1d9" style=""/></g><g><path d="m27 36v20h-16v-20h2z" fill="#e6e9ed" data-original="#e6e9ed" style=""/></g><g><path d="m60.92 21c.7 2.55 1.08 5.23 1.08 8 0 8.03-3.16 15.32-8.3 20.7l1.3 1.3-8 2 2-8 1.88 1.88c4.41-4.66 7.12-10.95 7.12-17.88 0-2.43-.33-4.77-.95-7l-.05-1z" fill="#ffeaa7" data-original="#ffeaa7" style=""/></g><g><path d="m54 9 2 8-8-2 1.88-1.88c-4.66-4.41-10.95-7.12-17.88-7.12-2.43 0-4.77.33-7 .95l-1 .05v-3.92c2.55-.7 5.23-1.08 8-1.08 8.03 0 15.32 3.16 20.7 8.3z" fill="#ffeaa7" data-original="#ffeaa7" style=""/></g><g><path d="m17 8-2 8-1.88-1.88c-4.41 4.66-7.12 10.95-7.12 17.88 0 2.43.33 4.77.95 7l.05 1h-3.92c-.7-2.55-1.08-5.23-1.08-8 0-8.03 3.16-15.32 8.3-20.7l-1.3-1.3z" fill="#ffeaa7" data-original="#ffeaa7" style=""/></g><g><path d="m49 36h4c0 3.31-2.69 6-6 6h-4c0-3.31 2.69-6 6-6z" fill="#b4dd7f" data-original="#b4dd7f" style=""/></g><g><path d="m49 26h4c0 3.31-2.69 6-6 6h-4c0-3.31 2.69-6 6-6z" fill="#b4dd7f" data-original="#b4dd7f" style=""/></g><g><path d="m37 32c3.31 0 6 2.69 6 6h-4c-3.31 0-6-2.69-6-6z" fill="#b4dd7f" data-original="#b4dd7f" style=""/></g><g><path d="m37 22c3.31 0 6 2.69 6 6h-4c-3.31 0-6-2.69-6-6z" fill="#b4dd7f" data-original="#b4dd7f" style=""/></g></g><g><path d="m1 61h62v2h-62z" fill="#000000" data-original="#000000" style=""/><path d="m25.269 7.916c2.18-.607 4.445-.916 6.731-.916 6.08 0 11.874 2.179 16.429 6.157l-2.385 2.385 11.33 2.832-2.832-11.33-1.866 1.866c-5.697-5.108-13.001-7.91-20.676-7.91-2.804 0-5.584.375-8.266 1.114l-.734.202v5.731l2.047-.096zm-.269-4.065c2.28-.565 4.632-.851 7-.851 7.484 0 14.592 2.849 20.013 8.021l.707.674.738-.738 1.168 4.67-4.67-1.168 1.354-1.354-.746-.706c-5.033-4.772-11.626-7.399-18.564-7.399-2.374 0-4.728.309-7 .916z" fill="#000000" data-original="#000000" style=""/><path d="m2.114 40.266.202.734h5.731l-.096-2.047-.036-.222c-.606-2.18-.915-4.445-.915-6.731 0-6.079 2.179-11.874 6.157-16.43l2.385 2.386 2.832-11.33-11.33 2.832 1.866 1.866c-5.108 5.697-7.91 13.001-7.91 20.676 0 2.804.375 5.584 1.114 8.266zm8.907-28.279.674-.707-.738-.738 4.67-1.168-1.168 4.67-1.354-1.355-.706.746c-4.772 5.035-7.399 11.628-7.399 18.565 0 2.374.309 4.728.916 7h-2.065c-.565-2.28-.851-4.632-.851-7 0-7.484 2.849-14.592 8.021-20.013z" fill="#000000" data-original="#000000" style=""/><path d="m56.048 22.047.036.222c.607 2.18.916 4.445.916 6.731 0 6.079-2.179 11.874-6.157 16.43l-2.385-2.386-2.832 11.33 11.33-2.832-1.866-1.866c5.108-5.697 7.91-13.001 7.91-20.676 0-2.804-.375-5.584-1.114-8.266l-.202-.734h-5.731zm4.101-.047c.565 2.28.851 4.632.851 7 0 7.484-2.849 14.592-8.021 20.013l-.674.707.738.738-4.67 1.168 1.168-4.67 1.354 1.355.706-.746c4.772-5.035 7.399-11.627 7.399-18.565 0-2.374-.309-4.728-.916-7z" fill="#000000" data-original="#000000" style=""/><path d="m18 39h2v2h-2z" fill="#000000" data-original="#000000" style=""/><path d="m22 39h2v2h-2z" fill="#000000" data-original="#000000" style=""/><path d="m14 39h2v2h-2z" fill="#000000" data-original="#000000" style=""/><path d="m18 43h2v2h-2z" fill="#000000" data-original="#000000" style=""/><path d="m22 43h2v2h-2z" fill="#000000" data-original="#000000" style=""/><path d="m14 43h2v2h-2z" fill="#000000" data-original="#000000" style=""/><path d="m14 47h2v2h-2z" fill="#000000" data-original="#000000" style=""/><path d="m22 47h2v2h-2z" fill="#000000" data-original="#000000" style=""/><path d="m18 47h2v2h-2z" fill="#000000" data-original="#000000" style=""/><path d="m22 51h2v2h-2z" fill="#000000" data-original="#000000" style=""/><path d="m14 51h2v2h-2z" fill="#000000" data-original="#000000" style=""/><path d="m18 51h2v2h-2z" fill="#000000" data-original="#000000" style=""/><path d="m28 31h2v2h-2z" fill="#000000" data-original="#000000" style=""/><path d="m16 31h2v2h-2z" fill="#000000" data-original="#000000" style=""/><path d="m20 31h2v2h-2z" fill="#000000" data-original="#000000" style=""/><path d="m24 31h2v2h-2z" fill="#000000" data-original="#000000" style=""/><path d="m16 27h2v2h-2z" fill="#000000" data-original="#000000" style=""/><path d="m28 27h2v2h-2z" fill="#000000" data-original="#000000" style=""/><path d="m24 27h2v2h-2z" fill="#000000" data-original="#000000" style=""/><path d="m20 27h2v2h-2z" fill="#000000" data-original="#000000" style=""/><path d="m16 23h2v2h-2z" fill="#000000" data-original="#000000" style=""/><path d="m28 23h2v2h-2z" fill="#000000" data-original="#000000" style=""/><path d="m20 23h2v2h-2z" fill="#000000" data-original="#000000" style=""/><path d="m24 23h2v2h-2z" fill="#000000" data-original="#000000" style=""/><path d="m44 43h3c3.859 0 7-3.141 7-7v-1h-5c-1.958 0-3.728.81-5 2.111v-4.111h3c3.859 0 7-3.141 7-7v-1h-5c-1.987 0-3.778.836-5.054 2.17-.412-3.469-3.368-6.17-6.946-6.17h-3v-2h-22v16h-2v20h-9v2h62v-2h-19zm5-6h2.899c-.465 2.279-2.484 4-4.899 4h-2.899c.464-2.279 2.484-4 4.899-4zm0-10h2.899c-.465 2.279-2.484 4-4.899 4h-2.899c.464-2.279 2.484-4 4.899-4zm-7 28h-8v-18.111c1.272 1.301 3.042 2.111 5 2.111h3v3 1zm-7.899-22h2.899c2.415 0 4.435 1.721 4.899 4h-2.899c-2.415 0-4.435-1.721-4.899-4zm2.899-10c2.415 0 4.435 1.721 4.899 4h-2.899c-2.415 0-4.435-1.721-4.899-4zm2 6h3v3 1 .111c-1.272-1.301-3.042-2.111-5-2.111h-3v-4.111c1.272 1.301 3.042 2.111 5 2.111zm-25-8h18v1 9 1 23h-4v-20h-14zm-2 16h14v18h-14z" fill="#000000" data-original="#000000" style=""/></g></g></g></svg>
